<svg width="50" height="59" viewBox="0 0 50 59" fill="none" xmlns="http://www.w3.org/2000/svg">
<path d="M37.843 31.6255H12.3027C8.736 31.6255 5.83803 28.7266 5.83803 25.1586V18.6917C5.83803 8.75239 13.9269 0.692627 23.8309 0.692627H26.3467C36.2826 0.692627 44.3396 8.78424 44.3396 18.6917V25.1586C44.3077 28.7266 41.4098 31.6255 37.843 31.6255ZM23.7991 6.23571C16.9522 6.23571 11.3474 11.8106 11.3474 18.6917V25.1586C11.3474 25.6683 11.7613 26.0824 12.2709 26.0824H37.8112C38.3207 26.0824 38.7347 25.6683 38.7347 25.1586V18.6917C38.7347 11.8425 33.1617 6.23571 26.283 6.23571H23.7991Z" fill="#5900CC"/>
<path d="M49.2436 38.9208C49.2436 25.5728 38.4479 14.7734 25.1045 14.7734C11.7611 14.7734 0.965408 25.5728 0.965408 38.9208C0.965408 52.2688 11.7611 58.1623 25.1045 58.1623C38.4161 58.1623 49.2436 52.2688 49.2436 38.9208Z" fill="#8B34FF"/>
</svg>
